<svg width="68" height="42" viewBox="0 0 68 42" fill="none" xmlns="http://www.w3.org/2000/svg">
<path d="M67.6081 22.3553C67.3677 21.2883 66.967 20.2816 66.5196 19.2884C65.3309 16.6644 63.4277 14.7653 60.8434 13.5439C59.3542 12.8392 57.7849 12.5909 56.1488 12.8124C54.5528 13.0338 53.117 13.6579 51.8148 14.6042C50.0719 15.8792 48.8031 17.5368 47.8949 19.483C47.5143 20.3017 47.2472 21.154 46.96 22.0063C46.8532 22.3083 46.9199 22.2949 46.566 22.2949H36.5224L31.6075 23.9189L26.4855 22.2949H22.412C22.1983 22.3016 22.0648 22.2412 21.9512 22.0533C21.791 21.7781 21.624 21.5097 21.397 21.2815C20.9095 20.8118 20.3753 20.805 19.8944 21.2815C19.7809 21.3889 19.6874 21.5164 19.6006 21.6372C19.5205 21.7379 19.4403 21.8452 19.3936 21.9593C19.2801 22.2345 19.0797 22.2882 18.7993 22.2882C13.4636 22.2814 8.12797 22.2882 2.79232 22.2882C1.93087 22.2949 1.0761 22.2882 0.214648 22.2949C0.00763245 22.2949 0.00763776 22.3016 0.000959849 22.5029V28.791C0.000959849 29.1064 -0.0324383 29.0796 0.294779 29.0796C1.29647 29.0863 2.29815 29.0796 3.29984 29.0863C3.66712 29.0863 3.62038 29.046 3.62706 29.4219V34.7906C3.62706 35.0523 3.62706 35.0523 3.89417 35.0523H5.70389C5.91758 35.0523 5.91759 35.059 5.91759 35.2603C5.92427 36.3878 5.92427 37.5152 5.91759 38.6359C5.91759 38.8574 5.91758 38.8574 5.69053 38.8574C5.07616 38.8641 4.4618 38.8574 3.84743 38.8641C3.62706 38.8641 3.62706 38.8641 3.62706 39.0856V41.7833C3.62706 41.9981 3.62706 41.9981 3.8274 41.9981C5.59037 41.9712 7.34666 41.9511 9.10963 41.9243C9.30329 41.9176 9.30328 41.9176 9.31664 41.7297C9.34335 41.327 9.36338 40.9311 9.38341 40.5351C9.39009 40.4009 9.43684 40.3405 9.57708 40.3405C10.492 40.3472 11.4068 40.3472 12.315 40.3472C12.502 40.3472 12.502 40.3539 12.5154 40.5485C12.5354 40.9311 12.5554 41.3136 12.5821 41.6961C12.5955 41.9175 12.5955 41.9176 12.8092 41.9243C13.9511 41.9511 15.0864 41.9779 16.2216 41.9981C16.462 42.0048 16.4687 42.0048 16.4687 41.7699V39.099C16.4687 38.8641 16.462 38.8641 16.2283 38.8641C15.6606 38.8574 15.093 38.8641 14.5254 38.8574C14.3318 38.8574 14.3251 38.8507 14.3251 38.6628C14.3184 37.5286 14.3184 36.3945 14.3251 35.2603C14.3251 35.059 14.3251 35.0523 14.5454 35.0523H16.3284C16.4353 35.059 16.4754 35.0053 16.4687 34.9046V29.2943C16.4687 29.0863 16.4754 29.0863 16.6824 29.0863C17.2099 29.0863 17.7442 29.0796 18.2784 29.093C18.5455 29.0997 18.8193 29.1199 19.0864 29.1668C19.1933 29.187 19.2534 29.2339 19.3068 29.3346C19.4337 29.5896 19.6006 29.8111 19.801 30.0124C20.3485 30.5828 20.9896 30.5694 21.5105 29.9721C21.584 29.8849 21.6574 29.7843 21.7175 29.6903C21.7976 29.5762 21.8778 29.4621 21.9312 29.3413C22.0247 29.1266 22.1783 29.0796 22.4053 29.0796C26.4054 29.0863 30.3988 29.0863 34.3989 29.0863C38.3722 29.0863 42.3456 29.0796 46.3189 29.0863C46.8064 29.0863 46.6996 29.0125 46.8064 29.489C47.1069 30.8916 47.581 32.227 48.2889 33.4752C49.2238 35.1395 50.4325 36.569 51.9885 37.683C52.9634 38.3742 54.0052 38.9178 55.1939 39.1326C56.062 39.2869 56.9301 39.3272 57.8116 39.3272C58.8667 39.3204 59.8617 39.0721 60.8234 38.6359C62.987 37.6494 64.6431 36.0858 65.8785 34.0658C67.2275 31.8445 67.9153 29.4151 67.9887 26.8113C68.0355 25.3148 67.942 23.825 67.6081 22.3553ZM14.3184 28.3146C14.3184 28.5897 14.3184 28.5897 14.058 28.5897H6.25816C6.20473 28.5897 6.15131 28.583 6.09788 28.5897C5.971 28.6031 5.91759 28.5562 5.91759 28.4219C5.92427 27.932 5.92427 27.4421 5.91759 26.9522C5.91759 26.8247 5.95765 26.7643 6.09121 26.771C6.14463 26.7777 6.19806 26.771 6.25148 26.771C8.83583 26.771 11.4135 26.771 13.9979 26.7778C14.3518 26.7778 14.3184 26.7375 14.3184 27.0932C14.3251 27.5026 14.3184 27.9119 14.3184 28.3146ZM60.9369 26.355C61.1639 26.6301 61.4043 26.8851 61.6247 27.1603C62.2591 27.9589 62.6063 28.8648 62.6932 29.8782C62.7533 30.5963 62.7666 31.3076 62.593 32.0122C62.2925 33.2605 61.5846 34.247 60.5696 35.012C59.9753 35.455 59.3475 35.8241 58.613 35.965C57.5779 36.1663 56.5495 36.1261 55.5278 35.8509C55.0069 35.71 54.5528 35.4348 54.1254 35.1127C53.3241 34.4953 52.6696 33.7571 52.2155 32.8511C51.9417 32.2941 51.8082 31.7103 51.8015 31.0929C51.7948 30.9586 51.8015 30.8177 51.8015 30.6835C51.7881 30.1198 51.8349 29.5628 51.9618 29.0125C52.1621 28.1803 52.5628 27.4623 53.1371 26.8315C53.3374 26.61 53.5378 26.3885 53.7448 26.1805C53.8383 26.0798 53.8249 26.0261 53.7448 25.9389C53.4443 25.6168 53.1571 25.2946 52.87 24.9658C52.2356 24.2276 51.895 23.3686 51.8282 22.3956C51.7881 21.7513 51.7748 21.1071 51.8349 20.4628C51.8549 20.2078 51.9083 19.9595 52.0085 19.7313C52.2823 19.1139 52.5962 18.5233 53.0302 17.9999C53.8583 16.9932 54.9334 16.4161 56.2022 16.1745C56.6697 16.0873 57.1505 16.0537 57.6313 16.0537C58.1388 16.047 58.633 16.1343 59.1071 16.3356C60.6764 16.9798 61.8384 18.0603 62.4394 19.6709C62.9469 21.04 62.8334 22.4157 62.3192 23.7646C62.0187 24.5296 61.5579 25.1806 60.9636 25.7376C60.8634 25.8315 60.7098 25.9121 60.7031 26.0396C60.6965 26.1671 60.8501 26.2543 60.9369 26.355Z" fill="#988561"/>
<path d="M32.4345 15.1835L48.3212 8.30478C48.7619 8.11016 48.7686 7.48603 48.3346 7.28471L32.7016 0.0503318C32.5547 -0.0167773 32.381 -0.0167773 32.2341 0.0503318L16.5678 7.38539C16.1337 7.58671 16.1404 8.2108 16.5811 8.40542L31.9937 15.1901C32.1273 15.2438 32.2876 15.2439 32.4345 15.1835Z" fill="#988561"/>
<path d="M19.4057 10.3315H18.5977V13.3716H19.4057V10.3315Z" fill="#988561"/>
<path d="M18.384 15.7203C18.4441 15.0358 18.5977 13.5326 18.7446 13.5728C18.758 13.5795 18.778 13.593 18.8114 13.707C19.0051 14.3312 18.9517 15.5391 18.965 15.5458C18.9917 15.5525 18.9717 13.3849 19.1587 13.2171C19.2922 13.0963 19.5126 14.0627 19.6061 14.6533C19.6662 15.0291 19.6996 15.3714 19.7196 15.6398" fill="#988561"/>
<path d="M18.9984 13.8548C19.4004 13.8548 19.7263 13.6626 19.7263 13.4254C19.7263 13.1882 19.4004 12.9958 18.9984 12.9958C18.5964 12.9958 18.2705 13.1882 18.2705 13.4254C18.2705 13.6626 18.5964 13.8548 18.9984 13.8548Z" fill="#988561"/>
<path d="M32.1606 21.7131L27.1521 20.2971L20.4275 18.4046L21.142 11.3984L32.3075 16.0894L32.1606 21.7131Z" fill="#988561"/>
<path d="M32.1606 21.713L44.2143 18.2569L43.4129 11.2642L32.3076 16.0893L32.1606 21.713Z" fill="#988561"/>
<path d="M32.715 8.3786C33.2129 8.3786 33.6165 7.97296 33.6165 7.47261C33.6165 6.97225 33.2129 6.56665 32.715 6.56665C32.2171 6.56665 31.8135 6.97225 31.8135 7.47261C31.8135 7.97296 32.2171 8.3786 32.715 8.3786Z" fill="#EFEFEF"/>
<path d="M35.7134 3.92927C35.9642 3.92927 36.1675 3.72497 36.1675 3.47294C36.1675 3.22091 35.9642 3.0166 35.7134 3.0166C35.4626 3.0166 35.2593 3.22091 35.2593 3.47294C35.2593 3.72497 35.4626 3.92927 35.7134 3.92927Z" fill="#EFEFEF"/>
<path d="M29.8235 11.5328C30.0743 11.5328 30.2776 11.3285 30.2776 11.0765C30.2776 10.8245 30.0743 10.6201 29.8235 10.6201C29.5727 10.6201 29.3694 10.8245 29.3694 11.0765C29.3694 11.3285 29.5727 11.5328 29.8235 11.5328Z" fill="#EFEFEF"/>
<path d="M21.5762 8.70735C21.827 8.70735 22.0303 8.50304 22.0303 8.25101C22.0303 7.99898 21.827 7.79468 21.5762 7.79468C21.3254 7.79468 21.1221 7.99898 21.1221 8.25101C21.1221 8.50304 21.3254 8.70735 21.5762 8.70735Z" fill="#EFEFEF"/>
<path d="M29.3626 6.51961C29.6133 6.51961 29.8166 6.3153 29.8166 6.06327C29.8166 5.81124 29.6133 5.60693 29.3626 5.60693C29.1118 5.60693 28.9084 5.81124 28.9084 6.06327C28.9084 6.3153 29.1118 6.51961 29.3626 6.51961Z" fill="#EFEFEF"/>
<path d="M35.1992 11.4051C35.45 11.4051 35.6533 11.2008 35.6533 10.9488C35.6533 10.6968 35.45 10.4924 35.1992 10.4924C34.9484 10.4924 34.7451 10.6968 34.7451 10.9488C34.7451 11.2008 34.9484 11.4051 35.1992 11.4051Z" fill="#EFEFEF"/>
<path d="M41.6699 8.91536C41.9207 8.91536 42.124 8.71105 42.124 8.45902C42.124 8.20699 41.9207 8.00269 41.6699 8.00269C41.4191 8.00269 41.2158 8.20699 41.2158 8.45902C41.2158 8.71105 41.4191 8.91536 41.6699 8.91536Z" fill="#EFEFEF"/>
<path d="M31.012 3.53328C31.2628 3.53328 31.4661 3.32897 31.4661 3.07694C31.4661 2.82491 31.2628 2.62061 31.012 2.62061C30.7612 2.62061 30.5579 2.82491 30.5579 3.07694C30.5579 3.32897 30.7612 3.53328 31.012 3.53328Z" fill="#EFEFEF"/>
<path d="M25.7566 10.0025C26.0074 10.0025 26.2107 9.79821 26.2107 9.54618C26.2107 9.29415 26.0074 9.08984 25.7566 9.08984C25.5058 9.08984 25.3025 9.29415 25.3025 9.54618C25.3025 9.79821 25.5058 10.0025 25.7566 10.0025Z" fill="#EFEFEF"/>
<path d="M37.4697 7.36531C37.7205 7.36531 37.9238 7.161 37.9238 6.90897C37.9238 6.65694 37.7205 6.45264 37.4697 6.45264C37.2189 6.45264 37.0156 6.65694 37.0156 6.90897C37.0156 7.161 37.2189 7.36531 37.4697 7.36531Z" fill="#EFEFEF"/>
<path d="M25.2024 6.15047C25.4532 6.15047 25.6565 5.94616 25.6565 5.69413C25.6565 5.4421 25.4532 5.23779 25.2024 5.23779C24.9516 5.23779 24.7483 5.4421 24.7483 5.69413C24.7483 5.94616 24.9516 6.15047 25.2024 6.15047Z" fill="#EFEFEF"/>
<path d="M24.7548 3.4729L25.2423 5.76802L29.1889 6.0633L32.2274 7.29141L25.7565 9.54626L24.4209 11.8481" stroke="#EFEFEF" stroke-width="0.25" stroke-miterlimit="10"/>
<path d="M19.2456 9.57305L21.3358 8.63355L25.396 9.57305L29.6164 10.9488L35.2058 10.8683L41.6767 8.56642C41.6767 8.56642 37.4897 6.8216 37.4028 6.8216C37.316 6.8216 33.2091 7.35175 33.2091 7.35175L35.8202 3.75471L31.0855 3.0769L29.4361 5.62036L29.169 6.06326" stroke="#EFEFEF" stroke-width="0.25" stroke-miterlimit="10"/>
<path d="M36.588 13.3849L35.199 10.8616L32.5746 7.33167L31.012 3.4729" stroke="#EFEFEF" stroke-width="0.25" stroke-miterlimit="10"/>
<path d="M44.261 7.92224C44.5118 7.92224 44.7151 7.71793 44.7151 7.4659C44.7151 7.21387 44.5118 7.00952 44.261 7.00952C44.0102 7.00952 43.8069 7.21387 43.8069 7.4659C43.8069 7.71793 44.0102 7.92224 44.261 7.92224Z" fill="#EFEFEF"/>
<path d="M21.6362 8.12361L24.8951 5.76807L22.0236 4.68091" stroke="#EFEFEF" stroke-width="0.25" stroke-miterlimit="10"/>
<path d="M32.715 7.79468L29.6965 11.0763V14.4251" stroke="#EFEFEF" stroke-width="0.25" stroke-miterlimit="10"/>
<path d="M28.5947 1.74146L30.8251 3.01654" stroke="#EFEFEF" stroke-width="0.25" stroke-miterlimit="10"/>
<path d="M45.4765 9.53967L41.8036 8.3787L37.3495 6.7278L35.9204 3.36563L37.7502 2.37915" stroke="#EFEFEF" stroke-width="0.25" stroke-miterlimit="10"/>
<path d="M45.8572 6.13721L44.4882 7.46599L42.004 11.0362L41.8237 8.5867" stroke="#EFEFEF" stroke-width="0.25" stroke-miterlimit="10"/>
</svg>
