<svg width="65" height="65" viewBox="0 0 65 65" fill="none" xmlns="http://www.w3.org/2000/svg">
<path d="M18.5588 0.00111581C18.8107 0.00272471 19.0626 0.0043336 19.3221 0.00599125C19.5835 0.0101744 19.8449 0.0143575 20.1142 0.0186674C20.3794 0.0209198 20.6446 0.0231723 20.9179 0.025493C21.5718 0.0313699 22.2256 0.0395788 22.8795 0.0498702C23.1228 0.544123 23.1228 0.544123 23.3711 1.04836C23.6145 1.04836 23.8578 1.04836 24.1085 1.04836C24.1085 1.30064 24.1085 1.55291 24.1085 1.81283C24.2288 2.76645 24.6403 3.13989 25.3529 3.7474C25.5332 3.88802 25.7135 4.02864 25.8992 4.17352C26.0383 4.29547 26.1774 4.41743 26.3207 4.54308C26.3207 4.70783 26.3207 4.87258 26.3207 5.04232C26.6857 5.16588 26.6857 5.16588 27.0581 5.29194C27.1401 5.62477 27.222 5.9576 27.3039 6.29043C27.669 6.414 27.669 6.414 28.0413 6.54006C28.163 7.405 28.163 7.405 28.2871 8.28741C28.6522 8.41098 28.6522 8.41098 29.0246 8.53704C29.1462 9.77267 29.1462 9.77267 29.2704 11.0333C29.4326 11.0333 29.5948 11.0333 29.762 11.0333C29.8836 10.7861 29.8836 10.7861 30.0078 10.534C30.1294 12.0168 30.1294 12.0168 30.2536 13.5295C30.4969 13.5295 30.7403 13.5295 30.991 13.5295C31.1126 15.0122 31.1126 15.0122 31.2368 16.525C31.4801 16.4426 31.7235 16.3602 31.9742 16.2753C31.8931 16.6872 31.8119 17.0991 31.7284 17.5234C32.4029 16.959 32.6856 16.6558 32.8614 15.7722C32.8728 15.5058 32.8842 15.2393 32.8959 14.9648C32.9099 14.6958 32.9238 14.4268 32.9382 14.1496C32.9445 13.945 32.9509 13.7403 32.9574 13.5295C33.0385 13.6942 33.1196 13.859 33.2032 14.0287C33.3654 14.0287 33.5276 14.0287 33.6948 14.0287C33.7759 13.205 33.857 12.3812 33.9406 11.5325C34.2651 11.5325 34.5895 11.5325 34.9238 11.5325C34.9238 10.8735 34.9238 10.2145 34.9238 9.53553C35.2483 9.53553 35.5727 9.53553 35.907 9.53553C35.907 8.71177 35.907 7.88802 35.907 7.0393C36.1504 6.95693 36.3937 6.87455 36.6444 6.78968C36.7255 6.29543 36.8066 5.80117 36.8902 5.29194C37.2147 5.29194 37.5391 5.29194 37.8734 5.29194C37.8886 5.1169 37.9038 4.94185 37.9195 4.7615C38.1908 3.78647 38.647 3.25822 39.3482 2.5461C40.0396 2.32768 40.0396 2.32768 40.5773 2.29647C40.5773 2.04935 40.5773 1.80222 40.5773 1.54761C41.9562 1.54761 43.3352 1.54761 44.7559 1.54761C44.6748 1.79473 44.5937 2.04186 44.5101 2.29647C44.7788 2.31707 45.0475 2.33766 45.3243 2.35888C46.2307 2.5461 46.2307 2.5461 46.7069 3.02974C46.9681 3.54459 46.9681 3.54459 46.9681 4.04383C47.2114 3.96146 47.4548 3.87908 47.7055 3.79421C47.7055 6.01834 47.7055 8.24248 47.7055 10.534C47.5433 10.4516 47.3811 10.3693 47.2139 10.2844C46.8982 10.9257 46.887 11.474 46.8298 12.1878C46.8092 12.4381 46.7887 12.6885 46.7674 12.9464C46.7525 13.1388 46.7376 13.3312 46.7223 13.5295C46.479 13.4471 46.2356 13.3647 45.9849 13.2799C45.9038 14.186 45.8227 15.0921 45.7391 16.0257C45.4958 16.1081 45.2524 16.1905 45.0017 16.2753C44.9206 17.0167 44.8395 17.7581 44.7559 18.5219C44.5125 18.4396 44.2692 18.3572 44.0185 18.2723C43.9374 18.7666 43.8562 19.2608 43.7727 19.7701C43.5293 19.7701 43.286 19.7701 43.0353 19.7701C42.873 20.1819 42.7108 20.5938 42.5437 21.0182C42.3814 21.0182 42.2192 21.0182 42.0521 21.0182C41.9862 21.1778 41.9202 21.3374 41.8523 21.5018C41.5605 22.0167 41.5605 22.0167 40.8231 22.2663C40.8231 22.5958 40.8231 22.9253 40.8231 23.2648C40.9194 23.1464 41.0157 23.0279 41.1149 22.9059C41.6608 22.4281 42.0849 22.363 42.7895 22.2663C42.7895 22.0192 42.7895 21.772 42.7895 21.5174C43.4384 21.435 44.0873 21.3527 44.7559 21.2678C44.837 21.0207 44.9181 20.7735 45.0017 20.5189C45.8939 20.4365 46.7862 20.3542 47.7055 20.2693C47.6244 20.0222 47.5433 19.775 47.4597 19.5204C48.5548 19.3969 48.5548 19.3969 49.6719 19.2708C49.753 19.0237 49.8342 18.7766 49.9177 18.5219C50.7694 18.3984 50.7694 18.3984 51.6383 18.2723C51.7195 18.0252 51.8006 17.7781 51.8841 17.5234C52.9792 17.3999 52.9792 17.3999 54.0964 17.2738C54.0964 17.0267 54.0964 16.7796 54.0964 16.525C54.7047 16.4014 54.7047 16.4014 55.3254 16.2753C55.4065 16.0282 55.4876 15.7811 55.5712 15.5265C56.0781 15.3549 56.0781 15.3549 56.5544 15.2768C56.5544 15.0297 56.5544 14.7826 56.5544 14.528C57.4466 14.4456 58.3389 14.3632 59.2582 14.2784C59.1771 14.0312 59.096 13.7841 59.0124 13.5295C60.148 13.5295 61.2836 13.5295 62.4536 13.5295C62.5347 13.7766 62.6159 14.0237 62.6994 14.2784C63.0416 14.2861 63.0416 14.2861 63.3907 14.294C64.1742 14.528 64.1742 14.528 64.5871 15.2495C65.049 16.4589 65.0104 17.6626 64.9885 18.9432C64.9897 19.2938 64.9896 19.2938 64.9909 19.6516C64.9754 21.6538 64.9754 21.6538 64.42 22.5159C63.7748 22.7031 63.7748 22.7031 63.191 22.7655C63.191 23.0126 63.191 23.2598 63.191 23.5144C62.2988 23.5968 61.4065 23.6791 60.4872 23.764C60.4872 24.0111 60.4872 24.2583 60.4872 24.5129C59.0272 24.6364 59.0271 24.6364 57.5376 24.7625C57.6187 25.0096 57.6998 25.2568 57.7834 25.5114C56.6883 25.6349 56.6883 25.6349 55.5712 25.761C55.5712 26.0081 55.5712 26.2552 55.5712 26.5099C54.6789 26.5922 53.7867 26.6746 52.8674 26.7595C52.9485 27.0066 53.0296 27.2537 53.1132 27.5084C51.6531 27.6319 51.6531 27.6319 50.1635 27.758C50.1635 27.9227 50.1635 28.0875 50.1635 28.2572C50.3258 28.3396 50.488 28.422 50.6551 28.5068C49.7629 28.5892 48.8706 28.6716 47.9513 28.7565C48.0324 29.0036 48.1135 29.2507 48.1971 29.5053C46.6154 29.7525 46.6154 29.7525 45.0017 30.0046C45.0017 30.087 45.0017 30.1693 45.0017 30.2542C45.9751 30.3366 46.9484 30.4189 47.9513 30.5038C48.0324 30.7509 48.1135 30.9981 48.1971 31.2527C49.0894 31.3351 49.9816 31.4174 50.9009 31.5023C50.9821 31.7494 51.0632 31.9966 51.1467 32.2512C51.9579 32.3336 52.769 32.4159 53.6048 32.5008C53.6048 32.8303 53.6048 33.1598 53.6048 33.4993C54.4159 33.4993 55.2271 33.4993 56.0628 33.4993C55.9817 33.7464 55.9005 33.9935 55.817 34.2482C56.547 34.3305 57.277 34.4129 58.0292 34.4978C57.9481 34.7449 57.867 34.992 57.7834 35.2466C58.5134 35.329 59.2435 35.4114 59.9956 35.4963C59.9145 35.7434 59.8334 35.9905 59.7498 36.2451C60.3176 36.3275 60.8854 36.4099 61.4704 36.4948C61.4704 36.8243 61.4704 37.1538 61.4704 37.4933C61.9571 37.4933 62.4438 37.4933 62.9452 37.4933C63.0263 37.7404 63.1075 37.9875 63.191 38.2421C63.3887 38.3605 63.5865 38.479 63.7902 38.601C64.497 39.0386 64.625 39.2207 64.9117 39.9895C65.0527 41.325 65.0178 42.5941 64.6658 43.8898C63.9435 44.761 63.3009 44.8 62.2078 44.9819C62.3701 45.1467 62.5323 45.3114 62.6994 45.4812C61.8072 45.4812 60.9149 45.4812 59.9956 45.4812C60.1578 45.3988 60.3201 45.3164 60.4872 45.2315C60.4872 45.0668 60.4872 44.902 60.4872 44.7323C59.1894 44.6499 57.8915 44.5676 56.5544 44.4827C56.6355 44.2356 56.7166 43.9884 56.8002 43.7338C55.7457 43.6514 54.6912 43.5691 53.6048 43.4842C53.6859 43.2371 53.767 42.9899 53.8506 42.7353C52.7961 42.653 51.7416 42.5706 50.6551 42.4857C50.7362 42.2386 50.8174 41.9915 50.9009 41.7368C50.0087 41.6545 49.1164 41.5721 48.1971 41.4872C48.1971 41.2401 48.1971 40.993 48.1971 40.7383C47.4671 40.656 46.737 40.5736 45.9849 40.4887C46.1471 40.4063 46.3094 40.324 46.4765 40.2391C46.4765 40.0743 46.4765 39.9096 46.4765 39.7399C45.5031 39.6575 44.5297 39.5751 43.5269 39.4902C43.6891 39.4079 43.8513 39.3255 44.0185 39.2406C44.0185 39.0759 44.0185 38.9111 44.0185 38.7414C43.2884 38.659 42.5584 38.5766 41.8063 38.4917C41.8063 38.2446 41.8063 37.9975 41.8063 37.7429C41.2385 37.7429 40.6707 37.7429 40.0856 37.7429C40.0856 38.2371 40.0856 38.7314 40.0856 39.2406C40.329 39.1582 40.5723 39.0759 40.8231 38.991C40.9042 39.65 40.9853 40.309 41.0689 40.988C41.2311 40.988 41.3933 40.988 41.5605 40.988C41.6416 40.8232 41.7227 40.6585 41.8063 40.4887C41.8874 41.2301 41.9685 41.9715 42.0521 42.7353C42.2954 42.7353 42.5387 42.7353 42.7895 42.7353C42.8706 43.4767 42.9517 44.2181 43.0353 44.9819C43.2786 45.0643 43.522 45.1467 43.7727 45.2315C43.8538 46.1377 43.9349 47.0438 44.0185 47.9774C44.1807 47.9774 44.3429 47.9774 44.5101 47.9774C44.5912 47.8126 44.6723 47.6479 44.7559 47.4782C44.7708 47.7427 44.7857 48.0072 44.801 48.2797C44.8218 48.6262 44.8426 48.9726 44.8634 49.3191C44.8731 49.4935 44.8828 49.6679 44.8927 49.8476C44.9385 50.8165 44.9385 50.8165 45.2475 51.7217C45.4097 51.6394 45.5719 51.557 45.7391 51.4721C45.7391 53.5315 45.7391 55.5909 45.7391 57.7127C45.4958 57.6303 45.2524 57.5479 45.0017 57.4631C44.9206 58.1221 44.8395 58.7811 44.7559 59.46C43.458 59.46 42.1602 59.46 40.8231 59.46C40.7419 58.8834 40.6608 58.3068 40.5773 57.7127C40.3339 57.7127 40.0906 57.7127 39.8398 57.7127C39.7587 56.9713 39.6776 56.2299 39.594 55.4661C39.3507 55.3837 39.1074 55.3013 38.8566 55.2164C38.7755 54.3927 38.6944 53.5689 38.6108 52.7202C38.3675 52.8026 38.1241 52.885 37.8734 52.9698C37.7923 52.3108 37.7112 51.6518 37.6276 50.9729C37.3843 50.8905 37.1409 50.8081 36.8902 50.7232C36.8826 50.4684 36.8826 50.4684 36.8749 50.2084C36.6212 49.4014 36.3815 49.1684 35.7841 48.6015C35.1867 48.0345 34.947 47.8015 34.6934 46.9945C34.6858 46.7397 34.6858 46.7397 34.678 46.4797C34.4347 46.562 34.1913 46.6444 33.9406 46.7293C33.8595 46.0703 33.7784 45.4113 33.6948 44.7323C33.5326 44.7323 33.3703 44.7323 33.2032 44.7323C33.041 45.0618 32.8787 45.3913 32.7116 45.7308C32.6305 45.566 32.5494 45.4013 32.4658 45.2315C32.1836 45.8048 32.1443 46.2493 32.0817 46.8853C32.0611 47.0893 32.0405 47.2933 32.0193 47.5035C32.0044 47.6599 31.9895 47.8163 31.9742 47.9774C31.7308 48.0598 31.4875 48.1421 31.2368 48.227C31.1557 48.9684 31.0745 49.7098 30.991 50.4736C30.6665 50.4736 30.3421 50.4736 30.0078 50.4736C30.0078 51.1326 30.0078 51.7916 30.0078 52.4706C29.6833 52.4706 29.3588 52.4706 29.0246 52.4706C29.0246 53.1296 29.0246 53.7886 29.0246 54.4676C28.7812 54.55 28.5379 54.6323 28.2871 54.7172C28.1069 55.2202 28.1069 55.2202 28.0413 55.7157C27.798 55.7157 27.5547 55.7157 27.3039 55.7157C27.2228 56.2923 27.1417 56.869 27.0581 57.4631C26.7337 57.4631 26.4092 57.4631 26.0749 57.4631C26.0749 57.9573 26.0749 58.4516 26.0749 58.9608C25.8316 58.9608 25.5882 58.9608 25.3375 58.9608C25.2159 59.7022 25.2159 59.7022 25.0917 60.4585C24.8484 60.5409 24.605 60.6233 24.3543 60.7081C24.1741 61.2112 24.1741 61.2112 24.1085 61.7066C23.8652 61.7066 23.6218 61.7066 23.3711 61.7066C23.3001 61.9486 23.2292 62.1906 23.156 62.4399C22.8795 63.2044 22.8795 63.2044 22.3879 63.454C22.3676 63.6136 22.3473 63.7732 22.3264 63.9376C22.2656 64.1075 22.2048 64.2774 22.1421 64.4525C21.0475 64.9298 20.0989 65.0128 18.9159 64.9985C18.6213 64.9969 18.3266 64.9953 18.023 64.9937C17.3808 64.9599 16.8525 64.8946 16.2428 64.7021C15.9851 62.5032 16.0343 60.4142 16.2428 58.2119C16.4862 58.1295 16.7295 58.0472 16.9803 57.9623C17.0614 57.1385 17.1425 56.3148 17.2261 55.4661C17.5505 55.4661 17.875 55.4661 18.2093 55.4661C18.2093 54.6423 18.2093 53.8186 18.2093 52.9698C18.4526 52.8875 18.696 52.8051 18.9467 52.7202C19.0278 51.9788 19.1089 51.2375 19.1925 50.4736C19.2736 50.6384 19.3547 50.8031 19.4383 50.9729C19.6005 50.9729 19.7627 50.9729 19.9299 50.9729C20.011 50.0667 20.0921 49.1606 20.1757 48.227C20.419 48.1446 20.6624 48.0623 20.9131 47.9774C20.9942 47.1536 21.0753 46.3299 21.1589 45.4812C21.4022 45.5635 21.6456 45.6459 21.8963 45.7308C21.9774 44.5775 22.0585 43.4243 22.1421 42.2361C22.3854 42.1537 22.6288 42.0713 22.8795 41.9865C22.8795 41.4098 22.8795 40.8332 22.8795 40.2391C22.7173 40.1567 22.555 40.0743 22.3879 39.9895C22.3879 40.1542 22.3879 40.319 22.3879 40.4887C21.4145 40.5711 20.4411 40.6535 19.4383 40.7383C19.4383 40.9031 19.4383 41.0678 19.4383 41.2376C19.6005 41.32 19.7627 41.4023 19.9299 41.4872C18.4698 41.5696 17.0097 41.652 15.5054 41.7368C15.5054 41.9016 15.5054 42.0663 15.5054 42.2361C15.6677 42.3185 15.8299 42.4008 15.997 42.4857C14.7803 42.5681 13.5636 42.6505 12.31 42.7353C12.3911 42.9825 12.4722 43.2296 12.5558 43.4842C12.0691 43.5666 11.5824 43.6489 11.081 43.7338C11.081 43.9809 11.081 44.2281 11.081 44.4827C9.9454 44.5651 8.80979 44.6474 7.63977 44.7323C7.63977 44.8971 7.63977 45.0618 7.63977 45.2315C7.802 45.3139 7.96423 45.3963 8.13138 45.4812C7.32023 45.5635 6.50909 45.6459 5.67336 45.7308C5.75447 45.9779 5.83559 46.225 5.91916 46.4797C5.29964 46.5288 4.6801 46.5752 4.06028 46.6201C3.88712 46.6341 3.71396 46.6481 3.53555 46.6625C2.40066 46.7422 1.38636 46.6816 0.265713 46.4797C-0.0169163 45.4587 -0.00735865 44.4748 0.00454863 43.4218C0.00565762 43.2358 0.00676661 43.0498 0.0079092 42.8582C0.0107938 42.4012 0.0152021 41.9442 0.0199113 41.4872C0.182141 41.4872 0.34437 41.4872 0.511515 41.4872C0.511515 41.1577 0.511515 40.8282 0.511515 40.4887C0.998203 40.4063 1.48489 40.324 1.98633 40.2391C2.06744 39.992 2.14856 39.7448 2.23213 39.4902C2.96216 39.4079 3.69219 39.3255 4.44435 39.2406C4.52546 38.9935 4.60658 38.7464 4.69015 38.4917C5.82576 38.4094 6.96136 38.327 8.13138 38.2421C8.05026 37.995 7.96915 37.7479 7.88558 37.4933C8.69672 37.4109 9.50787 37.3285 10.3436 37.2436C10.4247 36.9965 10.5058 36.7494 10.5894 36.4948C11.8061 36.4124 13.0228 36.33 14.2764 36.2451C14.3575 35.998 14.4387 35.7509 14.5222 35.4963C15.1711 35.4139 15.8201 35.3315 16.4886 35.2466C16.5698 34.9995 16.6509 34.7524 16.7345 34.4978C17.6101 34.2014 17.6101 34.2014 18.4551 33.9985C18.4551 33.8338 18.4551 33.669 18.4551 33.4993C19.5907 33.4169 20.7263 33.3345 21.8963 33.2497C21.8963 33.0025 21.8963 32.7554 21.8963 32.5008C22.3019 32.4184 22.7074 32.3361 23.1253 32.2512C23.1253 32.0041 23.1253 31.7569 23.1253 31.5023C23.977 31.3787 23.977 31.3787 24.8459 31.2527C24.8459 31.0056 24.8459 30.7584 24.8459 30.5038C24.562 30.5502 24.2781 30.5965 23.9856 30.6442C22.2257 30.8508 20.4599 30.6463 18.7009 30.5038C18.7009 30.2567 18.7009 30.0096 18.7009 29.755C16.9975 29.6314 16.9975 29.6314 15.2596 29.5053C15.3813 29.1346 15.3813 29.1346 15.5054 28.7565C14.5321 28.6741 13.5587 28.5917 12.5558 28.5068C12.5558 28.2597 12.5558 28.0126 12.5558 27.758C11.7447 27.6756 10.9335 27.5932 10.0978 27.5084C10.26 27.426 10.4223 27.3436 10.5894 27.2587C10.5894 27.094 10.5894 26.9292 10.5894 26.7595C10.3156 26.7337 10.0419 26.708 9.75982 26.6815C9.46578 26.6248 9.17174 26.5682 8.86878 26.5099C8.70656 26.2627 8.54433 26.0156 8.37718 25.761C7.74723 25.5789 7.74723 25.5789 7.14817 25.5114C7.14817 25.2642 7.14817 25.0171 7.14817 24.7625C6.29647 24.6389 6.29647 24.6389 5.42756 24.5129C5.34644 24.2658 5.26533 24.0186 5.18175 23.764C4.68644 23.581 4.68644 23.581 4.19855 23.5144C4.19855 23.2673 4.19855 23.0201 4.19855 22.7655C4.01097 22.7037 3.82339 22.642 3.63013 22.5783C2.90543 22.236 2.63565 21.958 2.23213 21.2678C2.23213 21.103 2.23213 20.9383 2.23213 20.7685C1.86711 20.8921 1.86711 20.8921 1.49472 21.0182C1.49472 19.453 1.49472 17.8879 1.49472 16.2753C1.81918 16.2753 2.14364 16.2753 2.47793 16.2753C2.39682 16.0282 2.3157 15.7811 2.23213 15.5265C3.93554 15.5265 5.63895 15.5265 7.39397 15.5265C7.39397 15.856 7.39397 16.1855 7.39397 16.525C8.44846 16.525 9.50295 16.525 10.5894 16.525C10.6705 16.7721 10.7516 17.0192 10.8352 17.2738C12.3764 17.3562 13.9176 17.4386 15.5054 17.5234C15.3838 17.8941 15.3838 17.8941 15.2596 18.2723C16.5575 18.3547 17.8553 18.4371 19.1925 18.5219C19.2736 18.7691 19.3547 19.0162 19.4383 19.2708C19.8438 19.3532 20.2494 19.4356 20.6673 19.5204C20.7484 19.3557 20.8295 19.1909 20.9131 19.0212C20.5481 18.8976 20.5481 18.8976 20.1757 18.7716C20.0946 18.3597 20.0135 17.9478 19.9299 17.5234C19.5649 17.3999 19.5649 17.3999 19.1925 17.2738C19.0708 16.1618 19.0708 16.1618 18.9467 15.0272C18.5817 14.9037 18.5817 14.9037 18.2093 14.7776C18.1944 14.6212 18.1795 14.4648 18.1641 14.3037C18.1435 14.0997 18.1229 13.8957 18.1017 13.6855C18.0818 13.4828 18.0618 13.2801 18.0412 13.0712C17.9903 12.5203 17.9903 12.5203 17.7177 12.0318C17.4743 12.1553 17.4743 12.1553 17.2261 12.2814C17.1044 10.0572 17.1044 10.0572 16.9803 7.78817C16.818 7.78817 16.6558 7.78817 16.4886 7.78817C16.4075 7.95292 16.3264 8.11767 16.2428 8.28741C16.2428 5.73378 16.2428 3.18014 16.2428 0.549115C17.2045 0.060829 17.534 -0.0104474 18.5588 0.00111581ZM32.7116 43.4842C32.7927 43.8137 32.8738 44.1432 32.9574 44.4827C32.9574 44.1532 32.9574 43.8237 32.9574 43.4842C32.8763 43.4842 32.7952 43.4842 32.7116 43.4842Z" fill="#988561"/>
</svg>
