<svg width="178" height="187" viewBox="0 0 178 187" fill="none" xmlns="http://www.w3.org/2000/svg">
<path fill-rule="evenodd" clip-rule="evenodd" d="M71.0966 21.1156C70.7343 22.5153 71.5671 23.9264 72.9583 24.3033C89.2878 29.0211 100.928 37.1951 107.634 48.5098C114.162 59.528 115.819 73.5102 112.633 90.0069C111.963 93.6517 109.812 99.9299 106.615 106.206C100.995 105.733 95.174 106.617 90.0694 108.341C82.5314 110.889 76.8873 115.461 75.0976 119.468C74.1071 121.687 73.9828 123.883 74.623 125.997C75.4459 128.701 77.8104 131.656 83.1113 133.553C90.4452 136.159 97.4077 133.802 103.393 128.303C106.538 125.408 109.384 121.586 111.851 117.447C115.091 118.717 117.871 121.02 119.539 124.812C123.12 132.811 120.188 142.051 115.219 150.288C110.926 157.423 104.033 167.011 95.9841 170.176C93.2497 171.253 90.4507 171.4 89.5929 174.665C88.2464 179.683 93.2243 180.697 96.9827 179.223C105.054 176.052 112.472 168.24 117.815 161.672C127.654 149.598 133.799 134.054 128.348 121.002C125.766 114.898 121.462 110.94 116.387 108.65C119.399 101.957 121.351 95.4862 121.975 91.6204C124.845 72.6156 122.113 56.7338 114.064 44.4887C106.03 32.252 92.7288 23.5647 74.2842 19.2539C72.8845 18.8916 71.4588 19.716 71.0966 21.1156ZM99.6013 117.178C97.9622 119.178 96.2118 120.9 94.3447 122.187C91.968 123.819 89.3824 124.672 86.6219 123.679C86.1583 123.508 85.5449 123.329 85.0814 123.158C85.803 122.411 87.2563 121.002 88.6591 120.184C91.7986 118.372 95.9463 116.929 100.253 116.352C100.039 116.655 99.8273 116.921 99.6013 117.178Z" fill="#988561"/>
<path fill-rule="evenodd" clip-rule="evenodd" d="M84.6705 122.997C84.6655 122.704 84.6209 122.445 84.4559 122.563C84.2512 122.716 84.3713 122.844 84.6705 122.997Z" fill="#054239"/>
<path fill-rule="evenodd" clip-rule="evenodd" d="M79.6499 24.4652C82.5557 24.1658 85.5891 23.7463 88.3424 23.1068C92.6297 22.0932 96.2444 20.6331 98.1577 18.3264C99.2094 17.3442 99.2563 15.6849 98.2657 14.6478C97.2835 13.5961 95.6243 13.5492 94.5872 14.5398C94.0211 14.9496 93.2751 15.1003 92.458 15.307C90.5402 15.8085 88.2251 15.7899 85.7226 15.76C82.5288 15.7187 79.1719 15.3894 76.137 15.2072C73.3874 15.0346 70.9078 14.9986 69.0416 15.1423C66.1028 15.3645 64.1368 16.4197 63.1501 17.3231C62.895 17.5635 59.9183 22.5514 64.0891 25.7347C65.5852 26.8698 69.523 29.5503 69.7181 29.6823C72.2285 31.2093 76.8317 34.0801 80.2671 37.3622C81.3556 38.3977 82.3775 39.4141 83.0577 40.4852C82.9906 40.6015 82.9235 40.7178 82.8709 40.8425C82.0068 42.7084 82.8153 44.9002 84.6727 45.7788C85.6261 46.3098 87.6028 46.5789 88.5843 46.3896C90.4869 46.015 91.4174 44.672 91.6182 42.5784C91.887 39.7292 90.6102 36.5692 88.4442 33.4385C86.1518 30.1574 82.6745 26.948 79.6499 24.4652ZM70.1675 25.0767C69.549 25.1073 69.1508 25.2263 69.2637 25.6016C69.3888 26.0227 69.8766 25.4127 70.1675 25.0767Z" fill="#988561"/>
</svg>
