<svg width="80" height="80" viewBox="0 0 80 80" fill="none" xmlns="http://www.w3.org/2000/svg">
<g clip-path="url(#clip0_20_857)">
<path d="M54.9074 30.9466C55.1725 29.41 55.1725 27.8393 54.9074 26.3027C53.8927 19.649 49.5025 15.7856 42.1074 16.9173C41.483 17.0149 40.9171 17.1515 40.3513 17.2881C37.5415 13.6588 33.0147 11.8246 26.8488 12.7807C18.5366 14.0685 14.4976 19.1807 14.6342 26.1856C14.0189 26.1856 13.4075 26.2312 12.8001 26.3222C11.7146 26.377 10.655 26.6729 9.69826 27.1884C8.74149 27.7039 7.91157 28.426 7.26879 29.3024C6.62601 30.1787 6.18652 31.1873 5.98224 32.2547C5.77797 33.3221 5.81405 34.4217 6.08786 35.4734C6.2168 36.2349 6.4261 36.9805 6.71225 37.6978C5.27061 38.8048 4.15689 40.2827 3.49015 41.9736C2.82341 43.6645 2.62872 45.5048 2.92689 47.2978C3.49274 50.8685 6.28298 55.2978 10.5757 55.5905C12.8001 56.1954 24.0001 55.4149 33.1708 53.9905C42.3415 52.5661 53.2879 49.9515 55.2196 48.7807C59.2196 47.2198 60.5659 42.1466 60.0196 38.5759C59.7999 37.0004 59.2257 35.4952 58.3402 34.1737C57.4547 32.8523 56.281 31.7489 54.9074 30.9466Z" fill="#988561" stroke="#231F20" stroke-width="2" stroke-miterlimit="10"/>
<path d="M43.1805 20.5072C44.256 20.2539 45.3805 20.302 46.4304 20.6463C47.4803 20.9905 48.415 21.6175 49.1318 22.4584" stroke="white" stroke-width="2" stroke-miterlimit="10" stroke-linecap="round"/>
<path d="M74.7317 54.5171C75.1551 50.244 75.1942 45.9396 74.8488 41.6586C74.5951 35.2001 68.9951 29.9513 55.7659 28.9562C42.5366 27.961 36.2537 32.2927 34.9854 38.7122C33.9865 42.8879 33.3725 47.1464 33.1512 51.4342C32.7298 55.7084 32.6906 60.0116 33.0342 64.2927C33.3073 70.7513 38.8878 76.0001 52.1366 77.0147C65.3854 78.0293 71.6488 73.6586 72.9171 67.2586C73.9025 63.0752 74.5112 58.8098 74.7317 54.5171Z" fill="#988561" stroke="#231F20" stroke-width="2" stroke-miterlimit="10"/>
<path d="M38.5951 43.2979C41.5024 45.8149 46.7317 47.571 54.2049 48.1369C61.6781 48.7027 67.2195 47.7661 70.4781 45.7174M37.8732 52.8783C40.7805 55.4149 46.0098 57.1515 53.5805 57.7369C61.1512 58.3222 66.5951 57.3661 69.8537 55.3174M37.1317 62.4393C40.0585 64.9759 45.2878 66.7125 52.8585 67.2979C60.4293 67.8832 65.8537 66.9271 69.1317 64.8783" stroke="#231F20" stroke-width="2" stroke-miterlimit="10" stroke-linecap="round"/>
<path d="M60.4684 32.3901C63.6098 33.1316 67.3562 34.6926 68.1562 35.8438" stroke="white" stroke-width="2" stroke-miterlimit="10" stroke-linecap="round"/>
<path d="M63.4147 5.56105C62.4652 4.60129 61.4115 3.7505 60.2733 3.02447C57.2099 0.936662 56.9172 1.07325 56.5269 1.07325C56.1239 1.02112 55.7146 1.09615 55.3562 1.28788C55.005 1.46349 54.7123 1.52203 52.644 4.56593C51.8683 5.66948 51.2141 6.85358 50.6928 8.09764C50.5936 8.46559 50.6181 8.85597 50.7627 9.20859C50.9073 9.5612 51.1638 9.85647 51.4928 10.0489C51.7902 10.2661 52.1489 10.3832 52.5172 10.3832C52.8855 10.3832 53.2442 10.2661 53.5416 10.0489C54.8684 9.24886 54.8684 9.483 54.8684 9.483C55.3378 12.397 56.0425 15.2682 56.9757 18.0684C57.1841 18.5414 57.5467 18.9297 58.0044 19.1698C58.4621 19.4099 58.9878 19.4876 59.4954 19.3901C60.0029 19.2927 60.4624 19.0259 60.7987 18.6334C61.135 18.2409 61.3281 17.7459 61.3465 17.2293C61.1821 14.2464 60.7643 11.2829 60.0977 8.37081C60.0977 8.37081 60.0977 8.15617 61.5221 8.37081C61.8879 8.4718 62.2768 8.45017 62.6291 8.30922C62.9815 8.16827 63.278 7.91576 63.4733 7.59032C63.6748 7.28764 63.7775 6.92986 63.767 6.56637C63.7565 6.20288 63.6334 5.85161 63.4147 5.56105ZM64.3318 23.4147C65.2855 24.3755 66.3386 25.2324 67.4733 25.9708C70.5367 28.0586 70.8294 27.922 71.2196 27.922C71.6227 27.9742 72.032 27.8991 72.3904 27.7074C72.7416 27.5123 73.0343 27.4732 75.1026 24.4293C75.8782 23.3258 76.5324 22.1417 77.0538 20.8976C77.1433 20.5296 77.1142 20.1426 76.9705 19.7922C76.8268 19.4417 76.5759 19.1457 76.2538 18.9464C75.9564 18.7292 75.5977 18.6121 75.2294 18.6121C74.8611 18.6121 74.5024 18.7292 74.205 18.9464C72.8782 19.7464 72.8977 19.5123 72.8977 19.5123C72.4266 16.6004 71.7285 13.7299 70.8099 10.9269C70.6044 10.457 70.2467 10.07 69.7945 9.82817C69.3422 9.58637 68.8217 9.50391 68.3168 9.59406C67.8119 9.68422 67.3521 9.94174 67.0115 10.3251C66.6709 10.7085 66.4692 11.1954 66.4391 11.7074C66.6147 14.6889 67.0323 17.6508 67.6879 20.5659C67.6879 20.5659 67.6879 20.7611 66.2635 20.5659C65.8955 20.4764 65.5085 20.5055 65.1581 20.6492C64.8076 20.7929 64.5115 21.0438 64.3123 21.3659C64.0979 21.6654 63.9842 22.0252 63.9877 22.3935C63.9912 22.7618 64.1117 23.1194 64.3318 23.4147ZM38.9855 6.00983C38.9847 6.52669 39.1116 7.03575 39.3549 7.49175C39.5982 7.94776 39.9504 8.33659 40.3802 8.6237C40.81 8.9108 41.304 9.08728 41.8185 9.13746C42.3329 9.18763 42.8517 9.10994 43.3289 8.9113C43.8545 8.69362 44.3112 8.33728 44.6501 7.88032C44.9891 7.42335 45.1975 6.88293 45.2533 6.31673C45.309 5.75054 45.21 5.17983 44.9667 4.66553C44.7234 4.15124 44.345 3.71267 43.872 3.39664C43.3989 3.08061 42.8488 2.89899 42.2806 2.87116C41.7123 2.84334 41.1472 2.97036 40.6455 3.23865C40.1438 3.50695 39.7244 3.90646 39.432 4.39453C39.1396 4.8826 38.9853 5.4409 38.9855 6.00983ZM12.3708 65.1318C12.3708 65.6468 12.4723 66.1568 12.6694 66.6326C12.8665 67.1085 13.1554 67.5408 13.5196 67.905C13.8837 68.2692 14.3161 68.5581 14.7919 68.7552C15.2678 68.9523 15.7778 69.0537 16.2928 69.0537C16.8078 69.0537 17.3178 68.9523 17.7937 68.7552C18.2695 68.5581 18.7019 68.2692 19.066 67.905C19.4302 67.5408 19.7191 67.1085 19.9162 66.6326C20.1133 66.1568 20.2148 65.6468 20.2148 65.1318C20.2148 64.0916 19.8015 63.0941 19.066 62.3585C18.3305 61.623 17.333 61.2098 16.2928 61.2098C15.2526 61.2098 14.2551 61.623 13.5196 62.3585C12.7841 63.0941 12.3708 64.0916 12.3708 65.1318Z" fill="#988561" stroke="#231F20" stroke-width="2" stroke-miterlimit="10"/>
</g>
<defs>
<clipPath id="clip0_20_857">
<rect width="80" height="80" fill="white"/>
</clipPath>
</defs>
</svg>
