<svg width="80" height="80" viewBox="0 0 80 80" fill="none" xmlns="http://www.w3.org/2000/svg">
<path d="M19.7901 49.8778C19.7901 71.6978 43.4121 85.3378 62.3101 74.4258C66.6187 71.9382 70.1966 68.3601 72.684 64.0514C75.1713 59.7426 76.4806 54.855 76.4801 49.8798C76.4801 28.0598 52.8601 14.4198 33.9601 25.3318C29.6508 27.8193 26.0723 31.3975 23.5846 35.7067C21.0968 40.0158 19.7874 44.904 19.7881 49.8798L19.7901 49.8778Z" fill="#988561" stroke="#231F20" stroke-width="2" stroke-miterlimit="10"/>
<path d="M46.4581 74.1438C41.9481 70.5118 39.0381 62.1378 37.9081 50.9118C36.7741 39.6878 37.9081 30.9218 41.6361 26.4318M49.7961 25.6118C54.2861 29.2638 57.1961 37.6178 58.3261 48.8438C59.4581 60.0678 58.3261 68.8538 54.6181 73.3238" stroke="#231F20" stroke-width="2" stroke-miterlimit="10" stroke-linecap="round"/>
<path d="M25.1001 43.4157C32.3445 41.6876 39.7033 40.4805 47.1201 39.8037C54.4892 38.9839 61.9073 38.6905 69.3181 38.9257M71.2701 56.3397C63.9943 58.0794 56.6014 59.2866 49.1501 59.9517C41.7499 60.776 34.3002 61.0694 26.8581 60.8297" stroke="#231F20" stroke-width="2" stroke-miterlimit="10" stroke-linecap="round"/>
<path d="M66.7602 32.934C64.6561 30.0282 61.7919 27.7584 58.4822 26.374" stroke="white" stroke-width="2" stroke-miterlimit="10" stroke-linecap="round"/>
<path d="M28.0481 53.0197C26.6203 52.474 25.1324 52.1007 23.6161 51.9077C24.2621 49.2537 24.8661 45.7977 25.3161 42.8877C26.1161 37.7357 26.7801 30.9417 26.2321 29.3597C25.1401 26.3157 20.0241 25.6717 17.0581 25.2017C14.0901 24.7337 10.5781 24.4217 9.73811 24.9877C9.15226 25.4694 8.66768 26.0625 8.31238 26.7326C7.95708 27.4027 7.73811 28.1365 7.66811 28.8917C7.36607 30.3791 7.65286 31.9256 8.46811 33.2057C9.96574 34.1599 11.6755 34.7301 13.4461 34.8657C13.0561 36.8177 12.7041 38.9857 12.4121 40.8977C11.9621 43.8057 11.4741 47.2617 11.2801 49.9957C9.77211 49.7337 8.24011 49.6357 6.71011 49.7017C4.66211 49.8377 3.95811 52.6898 3.68611 54.3877C3.41411 56.0857 3.23611 59.0137 5.15011 59.7557C8.61411 60.7797 12.1601 61.4957 15.7501 61.9037C19.2868 62.6125 22.8798 63.004 26.4861 63.0737C28.5561 62.9577 29.2581 60.0877 29.5121 58.4097C29.7661 56.7297 29.9821 53.7017 28.0481 53.0197ZM15.1641 13.5677C15.1561 18.2397 20.2101 21.1717 24.2621 18.8417C25.1884 18.3079 25.9575 17.5392 26.492 16.6133C27.0264 15.6874 27.3072 14.6369 27.3061 13.5677C27.3161 8.89375 22.2601 5.96375 18.2101 8.29175C17.2832 8.82551 16.5134 9.59437 15.9786 10.5207C15.4438 11.4471 15.1629 12.4981 15.1641 13.5677Z" fill="#988561" stroke="#231F20" stroke-width="2" stroke-miterlimit="10"/>
<path d="M18.7561 29.7119C20.9041 29.9259 21.9381 30.1799 22.3681 30.6499C22.7961 31.1179 22.3681 32.1139 22.3681 32.1139M22.0161 11.1079C22.6721 11.4079 23.2021 11.9239 23.5201 12.5719" stroke="white" stroke-width="2" stroke-miterlimit="10" stroke-linecap="round"/>
<path d="M13.2321 72.3679C13.2321 71.6459 11.9821 70.4159 10.8501 69.5359C9.71808 68.6559 8.05808 67.9359 7.39408 68.2479C6.36572 68.782 5.50165 69.5852 4.89408 70.5719C4.17804 71.4855 3.70778 72.5672 3.52808 73.7139C3.52808 74.4359 4.77808 75.6659 5.91008 76.5459C7.04208 77.4259 8.72208 78.1459 9.36608 77.8339C10.3961 77.2947 11.2654 76.493 11.8861 75.5099C12.6029 74.599 13.0671 73.5153 13.2321 72.3679Z" fill="#988561" stroke="#231F20" stroke-width="2" stroke-miterlimit="10"/>
<path d="M60.2002 13.3137C60.1942 16.2597 63.3802 18.1077 65.9322 16.6397C66.5174 16.3042 67.0033 15.8197 67.3406 15.2355C67.6778 14.6513 67.8543 13.9882 67.8522 13.3137C67.8602 10.3677 64.6762 8.51967 62.1222 9.98567C61.5367 10.3213 61.0506 10.8061 60.7134 11.3907C60.3761 11.9753 60.1977 12.6388 60.2002 13.3137Z" fill="#988561" stroke="#231F20" stroke-width="2" stroke-miterlimit="10" stroke-linecap="round"/>
<path d="M40.64 13.5279C40.64 13.5279 41.812 13.6639 45.208 11.3419C46.468 10.5019 47.616 9.50188 48.624 8.37388C48.8901 8.00673 49.0201 7.55839 48.9916 7.10585C48.9632 6.65331 48.778 6.22479 48.468 5.89388C47.3147 4.91022 46.0501 4.06512 44.7 3.37588C43.2105 2.55545 41.5839 2.01326 39.9 1.77588C39.4999 1.78496 39.1144 1.92865 38.806 2.18376C38.4975 2.43888 38.284 2.79051 38.2 3.18188C37.9313 4.70156 37.8527 6.24878 37.966 7.78788C38.044 9.33788 38.312 10.8719 38.766 12.3559C39.046 13.1239 39.808 13.6039 40.62 13.5279H40.64Z" fill="#988561" stroke="#231F20" stroke-width="2" stroke-miterlimit="10"/>
</svg>
