<svg width="80" height="74" viewBox="0 0 80 74" fill="none" xmlns="http://www.w3.org/2000/svg">
<path d="M50.5796 7.00602C49.7196 4.18602 42.6996 3.26602 38.5796 3.00602C34.6506 2.90328 30.7525 3.72538 27.1996 5.40602C23.9635 3.17584 20.2519 1.73093 16.3596 1.18602C12.2396 0.866017 5.15962 0.646017 3.87962 3.30602C2.71962 4.64602 1.99962 11.886 1.53962 17.926C1.07962 23.966 0.599624 31.286 1.53962 32.746C2.37962 35.566 8.49962 33.646 13.7196 34.066C15.9656 34.31 18.1916 34.718 20.3796 35.286C20.6996 37.426 23.1396 37.906 24.5996 38.026C26.0596 38.146 28.5996 38.026 29.1996 36.026C31.4525 35.806 33.7177 35.7391 35.9796 35.826C41.6396 36.266 46.9396 39.086 48.2196 36.446C49.3996 35.166 50.0796 27.866 50.5596 21.826C51.0396 15.786 51.5196 8.46602 50.5796 7.00602Z" fill="#988561" stroke="#231F20" stroke-width="2" stroke-miterlimit="10"/>
<path d="M20.2797 9.72619C16.5152 8.97547 12.6751 8.67336 8.83965 8.82619M19.6397 17.8862C15.8723 17.1568 12.0347 16.8549 8.19965 16.9862M18.9597 26.4062C15.1943 25.6614 11.3557 25.3527 7.51965 25.4862M44.7997 11.6662C41.035 10.9173 37.1951 10.6152 33.3597 10.7662M44.1597 19.8462C40.3943 19.1014 36.5557 18.7927 32.7197 18.9262M43.4797 28.3462C39.7012 27.5984 35.849 27.2897 31.9997 27.4262M27.2197 5.34619L25.3997 28.2262" stroke="#231F20" stroke-width="2" stroke-miterlimit="10" stroke-linecap="round"/>
<path d="M44.7196 6.646C47.9996 7.506 47.9996 8.406 47.9996 9.906" stroke="white" stroke-width="2" stroke-miterlimit="10" stroke-linecap="round"/>
<path d="M61.6996 37.406C56.5796 35.406 49.4196 33.126 46.0596 34.186C43.6996 34.466 36.8996 38.186 32.3596 41.626C27.8196 45.066 23.6796 49.786 23.9596 51.086C23.9596 51.086 24.2996 54.226 24.6396 56.666C24.8396 58.7086 25.2966 60.7178 25.9996 62.646C26.2393 62.9903 26.5701 63.2611 26.9549 63.4281C27.3398 63.5951 27.7636 63.6516 28.1787 63.5914C28.5939 63.5312 28.9841 63.3567 29.3057 63.0872C29.6273 62.8178 29.8676 62.4642 29.9996 62.066C30.1329 60.0098 29.9916 57.945 29.5796 55.926C29.5796 55.606 29.2396 55.766 33.1996 57.366C34.1196 62.826 34.9796 66.426 36.0596 68.006C38.0596 73.066 46.7396 72.506 51.7196 71.786C56.6996 71.066 65.1596 69.186 65.7196 63.786C66.2996 61.966 66.1196 58.266 65.4796 52.746C69.4796 49.446 72.7996 45.526 72.5396 44.366C73.1796 42.286 66.7996 39.386 61.6996 37.406Z" fill="#988561" stroke="#231F20" stroke-width="2" stroke-miterlimit="10"/>
<path d="M39.4197 58.6459C43.5397 59.9459 47.8197 60.8859 50.1997 60.1459C53.5853 59.132 56.7909 57.5933 59.6997 55.5859" stroke="#231F20" stroke-width="2" stroke-miterlimit="10" stroke-linecap="round"/>
<path d="M44.0156 47.4862C44.0674 47.8062 44.2202 48.1012 44.4516 48.3282C44.6956 48.5802 45.0316 48.7922 45.4396 48.9542C45.8476 49.1162 46.3196 49.2202 46.8276 49.2662C47.3376 49.3122 47.8736 49.2962 48.4076 49.2202C48.9301 49.1466 49.4422 49.0123 49.9336 48.8202C50.4096 48.6342 50.8336 48.4002 51.1796 48.1302C51.5276 47.8582 51.7849 47.5649 51.9516 47.2502C52.1091 46.9673 52.1722 46.6415 52.1316 46.3202C52.0794 46.001 51.9266 45.7067 51.6956 45.4802C51.414 45.2043 51.0773 44.991 50.7076 44.8542C50.2623 44.6839 49.7949 44.5782 49.3196 44.5402C48.7935 44.4949 48.264 44.511 47.7416 44.5882C47.2185 44.6618 46.7057 44.796 46.2136 44.9882C45.7376 45.1742 45.3136 45.4082 44.9696 45.6782C44.6534 45.9133 44.3903 46.2125 44.1976 46.5562C44.0401 46.8391 43.977 47.165 44.0176 47.4862H44.0156Z" fill="white" stroke="#231F20" stroke-width="2" stroke-miterlimit="10"/>
<path d="M49.6196 37.5859C51.7758 37.7015 53.8948 38.1957 55.8796 39.0459" stroke="white" stroke-width="2" stroke-miterlimit="10" stroke-linecap="round"/>
<path d="M65.0596 3.30612C66.9396 3.82612 69.7196 4.64612 66.5996 12.2861C63.4796 19.9261 61.5996 19.4661 60.5996 19.2061C59.5996 18.9461 57.7797 18.4461 59.0597 10.2261C60.3397 2.00612 63.1796 2.78612 65.0596 3.30612ZM56.1396 24.6061C56.1396 25.3806 56.4473 26.1233 56.9949 26.6709C57.5425 27.2185 58.2852 27.5261 59.0597 27.5261C59.8341 27.5261 60.5768 27.2185 61.1244 26.6709C61.672 26.1233 61.9796 25.3806 61.9796 24.6061C61.9796 23.8317 61.672 23.089 61.1244 22.5414C60.5768 21.9938 59.8341 21.6861 59.0597 21.6861C58.2852 21.6861 57.5425 21.9938 56.9949 22.5414C56.4473 23.089 56.1396 23.8317 56.1396 24.6061ZM77.4596 14.1061C78.7396 14.9661 80.6196 16.2861 76.3796 21.2461C72.1396 26.2061 70.8396 25.4061 70.1996 24.9661C69.5596 24.5261 68.1996 23.6861 71.2796 17.8461C74.3596 12.0061 76.1796 13.2661 77.4596 14.1061ZM65.2396 29.3261C65.2396 29.6282 65.2991 29.9272 65.4147 30.2063C65.5303 30.4853 65.6997 30.7389 65.9133 30.9525C66.1269 31.166 66.3804 31.3355 66.6595 31.451C66.9385 31.5666 67.2376 31.6261 67.5396 31.6261C67.8417 31.6261 68.1408 31.5666 68.4198 31.451C68.6989 31.3355 68.9524 31.166 69.166 30.9525C69.3796 30.7389 69.549 30.4853 69.6646 30.2063C69.7802 29.9272 69.8396 29.6282 69.8396 29.3261C69.8396 28.7161 69.5973 28.1311 69.166 27.6998C68.7347 27.2684 68.1496 27.0261 67.5396 27.0261C66.9297 27.0261 66.3446 27.2684 65.9133 27.6998C65.482 28.1311 65.2396 28.7161 65.2396 29.3261Z" fill="#988561" stroke="#231F20" stroke-width="2" stroke-miterlimit="10"/>
</svg>
